# xmcd
#
# Track frame offsets:
#	150
#	20085
#	31874
#	48980
#	66335
#	82623
#	99585
#	111344
#	130625
#	150048
#	168239
#	183833
#
# Disc length: 2687
#
# Revision: 1
# Processed by: cddbd v1.5.1PL0 Copyright (c) Steve Scherf et al.
# Submitted via: Audion 3.0.2 (http://www.panic.com/audion/)
# Normalized: r0:TRMNUM
#
DISCID=840a7d0c
DTITLE=Jonh Fogerty - Blue Moon Swamp
DYEAR=1900
DGENRE=
TTITLE0=Southern Streamline
TTITLE1=Hot Rod Heart 
TTITLE2=Blueboy 
TTITLE3=Hundred and Ten in the Shade
TTITLE4=Rattlesnake Highway 
TTITLE5=Bring It Down to Jelly Roll
TTITLE6=Walking in a Hurricane
TTITLE7=Swamp River Days
TTITLE8=Rambunctious Boy
TTITLE9=Joy of My Life 
TTITLE10=Blue Moon Nights
TTITLE11=Bad Bad Boy
EXTD=
EXTT0=
EXTT1=
EXTT2=
EXTT3=
EXTT4=
EXTT5=
EXTT6=
EXTT7=
EXTT8=
EXTT9=
EXTT10=
EXTT11=
PLAYORDER=
